<svg width="264" height="165" viewBox="0 0 264 165" fill="none" xmlns="http://www.w3.org/2000/svg">
<path opacity="0.31" d="M254.157 150.521C253.664 150.528 250.633 146.476 250.053 145.915C245.305 141.321 242.457 136.274 240.317 130.783C238.686 126.597 237.469 122.15 236.141 117.458C235.244 114.294 233.798 110.757 230.666 109.758C227.619 108.789 224.337 110.799 222.464 113.39C220.588 115.98 219.645 119.122 218.043 121.889C215.136 126.903 209.991 129.005 205.737 124.597C199.662 118.3 196.924 109.713 193.071 102.033C190.275 96.4569 187.933 89.9284 184.409 84.7865C179.035 76.9498 171.665 70.2647 161.868 70.2647C155.656 71.2043 150.184 76.7083 146.478 83.5826C142.775 90.4569 140.612 98.6363 138.772 106.793C137.229 113.634 135.875 120.551 134.622 127.504C132.292 119.125 129.868 110.809 127.245 102.636C124.403 93.7848 121.265 84.966 116.906 77.8829C112.547 70.7997 106.775 65.5763 100.981 65.6122C92.0512 67.3414 86.2895 76.1569 82.5114 85.9252C80.0351 92.3297 78.8344 100.088 77.0792 106.855C74.6648 116.176 73.3989 126.316 68.7595 134.476C65.5132 140.186 60.5215 138.73 57.1577 133.598C55.3013 130.766 53.993 127.399 51.9147 124.815C49.8364 122.231 46.5575 120.548 43.9213 122.176C41.2101 123.85 40.3977 128.088 40.0323 131.804C39.4907 137.321 39.0176 142.535 38.127 147.533C37.9345 148.623 37.7191 149.699 37.481 150.766H130.713C130.648 151.164 130.583 151.565 130.521 151.964L254.157 150.521Z" fill="#FAFAFA"/>
<path opacity="0.77" d="M216.852 137.849C216.611 142.655 211.381 151.056 206.575 150.815C201.769 150.574 199.205 141.778 199.449 136.972C199.691 132.166 204.81 108.114 209.616 108.359C214.418 108.6 217.094 133.044 216.852 137.849Z" fill="#FF9999"/>
<path d="M206.96 150.557C206.957 150.557 206.953 150.557 206.953 150.557C206.885 150.554 206.829 150.492 206.836 150.424L209.26 111.475C209.263 111.406 209.319 111.347 209.394 111.357C209.462 111.36 209.518 111.422 209.511 111.491L207.087 150.44C207.081 150.505 207.025 150.557 206.96 150.557Z" fill="#0B4870"/>
<path opacity="0.77" d="M205.851 136.848C204.758 139.252 203.922 141.774 203.42 144.404C203.166 145.735 203.002 147.181 203.606 148.397C204.265 149.725 205.727 150.499 207.188 150.74C210.761 151.327 214.333 149.138 216.428 146.185C218.523 143.233 219.43 139.621 220.262 136.101C220.917 133.328 221.56 130.512 222.797 127.928C223.325 126.819 226.428 122.541 224.96 121.432C222.953 119.856 217.146 121.569 213.426 125.634C210.36 128.975 207.723 132.737 205.851 136.848Z" fill="#FF9999"/>
<path d="M207.188 150.864C207.178 150.864 207.169 150.864 207.156 150.861C207.087 150.845 207.048 150.773 207.064 150.707C207.107 150.538 211.508 133.771 221.828 124.225C221.88 124.179 221.958 124.179 222.007 124.231C222.056 124.284 222.053 124.362 222 124.411C211.733 133.905 207.355 150.603 207.312 150.769C207.299 150.828 207.247 150.864 207.188 150.864Z" fill="#0B4870"/>
<path opacity="0.77" d="M231.113 132.89C230.744 133.553 230.053 134.003 229.423 134.355C228.65 134.792 227.824 135.174 227.025 135.546C226 136.022 224.943 136.515 223.965 137.128C223.253 137.575 222.62 138.081 222.089 138.623C222.927 136.717 223.909 135.053 225.064 133.566C226.584 131.608 228.144 130.616 229.707 130.616C229.743 130.616 229.779 130.616 229.814 130.62C230.297 130.633 230.673 130.753 230.93 130.975C231.462 131.429 231.439 132.303 231.113 132.89Z" fill="#FF9999"/>
<path opacity="0.77" d="M232.855 143.745C232.239 144.185 231.42 144.296 230.702 144.349C229.814 144.411 228.904 144.404 228.027 144.401C226.898 144.394 225.73 144.384 224.585 144.521C223.749 144.623 222.96 144.809 222.249 145.07C223.821 143.706 225.42 142.619 227.1 141.771C229.312 140.652 231.146 140.424 232.558 141.092C232.591 141.109 232.624 141.125 232.656 141.141C233.087 141.36 233.374 141.628 233.514 141.941C233.795 142.574 233.4 143.357 232.855 143.745Z" fill="#FF9999"/>
<path opacity="0.77" d="M228.744 149.089C228.232 149.017 227.772 148.691 227.39 148.378C226.921 147.993 226.47 147.566 226.036 147.148C225.479 146.616 224.901 146.065 224.268 145.595C223.805 145.252 223.325 144.975 222.849 144.773C224.271 144.831 225.573 145.04 226.81 145.406C228.434 145.885 229.452 146.632 229.841 147.624C229.85 147.647 229.857 147.67 229.867 147.693C229.978 148.003 229.994 148.27 229.919 148.492C229.762 148.946 229.198 149.151 228.744 149.089Z" fill="#FF9999"/>
<path d="M217.051 150.962C216.986 150.955 216.924 150.906 216.924 150.835C216.924 150.73 217.116 140.394 229.573 131.732C229.632 131.693 229.71 131.706 229.749 131.765C229.788 131.823 229.775 131.902 229.716 131.941C217.368 140.528 217.175 150.734 217.175 150.835C217.178 150.903 217.123 150.962 217.051 150.962Z" fill="#0B4870"/>
<path d="M217.051 150.962C217.032 150.962 217.015 150.959 216.996 150.949C216.93 150.919 216.904 150.844 216.934 150.779C216.973 150.698 220.94 142.453 231.345 142.453C231.416 142.453 231.472 142.508 231.472 142.58C231.472 142.652 231.416 142.707 231.345 142.707C221.106 142.707 217.201 150.805 217.165 150.887C217.146 150.932 217.1 150.962 217.051 150.962Z" fill="#0B4870"/>
<path d="M228.979 148.042C228.953 148.042 228.927 148.032 228.904 148.016C224.787 144.91 222.761 145.001 222.744 145.004C222.673 145.011 222.614 144.955 222.607 144.887C222.604 144.818 222.656 144.756 222.725 144.75C222.81 144.74 224.842 144.636 229.057 147.813C229.113 147.856 229.126 147.934 229.084 147.993C229.057 148.022 229.018 148.042 228.979 148.042Z" fill="#0B4870"/>
<path d="M69.6073 135.791C67.7966 133.699 65.503 131.898 64.7787 129.259C64.2501 127.331 64.6678 125.292 64.8733 123.305C65.0788 121.318 65.0071 119.119 63.7216 117.592C62.6613 116.333 60.9875 115.785 59.3791 115.439C57.7706 115.093 56.0904 114.874 54.6614 114.055C52.3416 112.724 52.8049 110.463 51.5586 108.48C50.1622 106.254 46.9094 103.413 44.1232 104.891C41.1738 106.457 41.6403 111.21 43.6011 113.308C44.9029 114.701 46.5701 116.036 46.7626 117.935C47.0497 120.789 43.7806 123.36 44.6778 126.088C45.3434 128.101 47.8784 128.792 49.1345 130.502C50.3743 132.195 50.1231 134.564 49.3955 136.531C48.6647 138.499 47.5163 140.316 47.0628 142.362C46.1329 146.551 49.4216 149.445 53.1671 150.381C56.6091 151.239 64.0315 150.835 64.0315 150.835C66.6808 149.908 69.6171 147.582 71.0755 145.037C72.175 143.115 72.3283 140.681 71.4768 138.636C71.0363 137.585 70.3643 136.662 69.6073 135.791Z" fill="#FF9999"/>
<path d="M61.477 150.854C61.4118 150.854 61.353 150.802 61.3498 150.734C59.9893 129.275 47.4446 109.674 47.3173 109.478C47.2782 109.419 47.2945 109.341 47.3565 109.302C47.4152 109.263 47.4935 109.279 47.5327 109.341C47.6599 109.537 60.2405 129.197 61.6075 150.717C61.6108 150.786 61.5586 150.848 61.4901 150.851C61.4835 150.854 61.4803 150.854 61.477 150.854Z" fill="#0B4870"/>
<path d="M36.1361 135.817C36.3319 135.651 36.6157 135.559 36.9811 135.549C37.0072 135.549 37.0366 135.549 37.0627 135.549C38.2405 135.549 39.4216 136.3 40.5733 137.778C41.4476 138.903 42.1883 140.163 42.8212 141.602C42.4199 141.19 41.9403 140.809 41.402 140.473C40.6646 140.009 39.862 139.637 39.0888 139.275C38.4852 138.995 37.862 138.704 37.278 138.375C36.8017 138.107 36.2797 137.765 35.9991 137.266C35.7511 136.822 35.7348 136.159 36.1361 135.817Z" fill="#FF9999"/>
<path d="M34.1853 144.107C34.2897 143.872 34.5083 143.67 34.8346 143.504C34.8574 143.49 34.8835 143.481 34.9064 143.468C35.9732 142.962 37.3598 143.135 39.0336 143.98C40.306 144.623 41.5131 145.445 42.704 146.476C42.1657 146.277 41.5686 146.136 40.9389 146.061C40.0711 145.957 39.1902 145.964 38.3354 145.97C37.6698 145.973 36.9814 145.98 36.3126 145.931C35.7677 145.892 35.1511 145.807 34.6845 145.474C34.2669 145.181 33.97 144.587 34.1853 144.107Z" fill="#FF9999"/>
<path d="M36.8998 149.066C36.8411 148.9 36.8541 148.698 36.939 148.463C36.9455 148.446 36.952 148.427 36.9585 148.411C37.2522 147.66 38.0221 147.096 39.2521 146.734C40.1852 146.456 41.1706 146.3 42.2472 146.254C41.8851 146.407 41.5229 146.616 41.1738 146.877C40.6942 147.233 40.257 147.647 39.8361 148.052C39.5066 148.365 39.1673 148.691 38.8117 148.981C38.5246 149.216 38.1755 149.464 37.7872 149.52C37.4447 149.562 37.0205 149.406 36.8998 149.066Z" fill="#FF9999"/>
<path d="M46.6288 150.962C46.5603 150.962 46.5016 150.906 46.5016 150.835C46.5016 150.756 46.3482 143.05 37.0335 136.574C36.9748 136.535 36.9617 136.453 37.0009 136.398C37.04 136.339 37.1216 136.326 37.1771 136.365C46.6093 142.923 46.7561 150.756 46.7561 150.835C46.7593 150.903 46.7006 150.962 46.6288 150.962C46.6321 150.962 46.6321 150.962 46.6288 150.962Z" fill="#0B4870"/>
<path d="M46.6323 150.962C46.5833 150.962 46.5377 150.936 46.5181 150.89C46.4887 150.828 43.5426 144.724 35.8233 144.724C35.7515 144.724 35.696 144.668 35.696 144.597C35.696 144.525 35.7515 144.469 35.8233 144.469C43.709 144.469 46.7171 150.72 46.7465 150.782C46.7758 150.848 46.7497 150.923 46.6845 150.952C46.6682 150.955 46.6486 150.962 46.6323 150.962Z" fill="#0B4870"/>
<path d="M37.6111 148.753C37.5719 148.753 37.5361 148.737 37.51 148.701C37.4675 148.645 37.4773 148.564 37.5361 148.521C40.7301 146.11 42.2799 146.195 42.3451 146.198C42.4136 146.205 42.4691 146.264 42.4626 146.335C42.4561 146.404 42.3973 146.463 42.3256 146.453C42.3092 146.453 40.7889 146.388 37.6894 148.724C37.6633 148.747 37.6372 148.753 37.6111 148.753Z" fill="#0B4870"/>
<path d="M168.781 139.249H86.7916C86.0967 139.249 85.5322 138.685 85.5322 137.99V25.6323C85.5322 24.9374 86.0967 24.3729 86.7916 24.3729H168.781C169.476 24.3729 170.04 24.9374 170.04 25.6323V137.99C170.04 138.685 169.476 139.249 168.781 139.249Z" fill="#CCD5FF"/>
<path d="M172.437 145.47H84.3976C82.5211 145.47 81 143.948 81 142.071V20.6502C81 18.7731 82.5211 17.2515 84.3976 17.2515H172.437C174.313 17.2515 175.834 18.7731 175.834 20.6502V142.071C175.834 143.948 174.313 145.47 172.437 145.47Z" fill="#476E88"/>
<path d="M168.218 140.853H88.6169C86.7404 140.853 85.2192 139.332 85.2192 137.454V25.2669C85.2192 23.3898 86.7404 21.8681 88.6169 21.8681H168.217C170.094 21.8681 171.615 23.3898 171.615 25.2669V137.454C171.615 139.332 170.094 140.853 168.218 140.853Z" fill="#F7F7F7"/>
<path opacity="0.11" d="M108.687 37.8994H96.5793V50.0115H108.687V37.8994Z" fill="#2A94F4"/>
<path d="M95.9666 41.3505C96.5811 41.6639 97.1496 42.0205 97.704 42.3905C98.255 42.7635 98.7931 43.1488 99.3112 43.5527C100.353 44.3551 101.336 45.2132 102.278 46.1096L100.188 46.2642C100.498 45.7713 100.801 45.3289 101.131 44.8822C101.456 44.4367 101.798 44.0063 102.151 43.5839C102.861 42.7427 103.62 41.9404 104.446 41.2004C105.276 40.4645 106.16 39.7798 107.122 39.1996C108.091 38.6313 109.122 38.1351 110.235 37.8994C109.522 38.7868 108.855 39.6055 108.201 40.4358L106.272 42.9143C105.631 43.7365 104.99 44.5573 104.343 45.3736L102.403 47.7992L101.319 49.1555L100.313 47.954C99.4787 46.9567 98.6852 45.921 97.9509 44.8297C97.5808 44.2867 97.2307 43.7251 96.8937 43.1512C96.5597 42.5743 96.2401 41.9839 95.9666 41.3505Z" fill="#FFBE55"/>
<path opacity="0.11" d="M108.687 73.402H96.5793V85.5141H108.687V73.402Z" fill="#2A94F4"/>
<path opacity="0.11" d="M108.687 109.809H96.5793V121.921H108.687V109.809Z" fill="#2A94F4"/>
<g opacity="0.52">
<g opacity="0.52">
<path opacity="0.52" d="M161.625 37.8994H114.137V39.8496H161.625V37.8994Z" fill="#2A94F4"/>
<path opacity="0.52" d="M161.625 42.9805H114.136V44.9307H161.625V42.9805Z" fill="#2A94F4"/>
<path opacity="0.52" d="M134.89 48.0613H161.625V50.0115H114.136V48.0613H134.89Z" fill="#2A94F4"/>
</g>
</g>
<g opacity="0.52">
<g opacity="0.52">
<path opacity="0.52" d="M161.625 73.402H114.137V75.3522H161.625V73.402Z" fill="#2A94F4"/>
<path opacity="0.52" d="M161.625 78.4829H114.136V80.4331H161.625V78.4829Z" fill="#2A94F4"/>
<path opacity="0.52" d="M136.766 83.5638H114.136V85.5139H136.766V83.5638Z" fill="#2A94F4"/>
</g>
</g>
<g opacity="0.52">
<g opacity="0.52">
<path opacity="0.52" d="M161.625 109.809H114.137V111.759H161.625V109.809Z" fill="#2A94F4"/>
<path opacity="0.52" d="M159.7 114.89H114.136V116.84H159.7V114.89Z" fill="#2A94F4"/>
<path opacity="0.52" d="M161.625 119.971H114.136V121.921H161.625V119.971Z" fill="#2A94F4"/>
</g>
</g>
<path d="M149.343 23.5029H107.491V14.3988C107.491 12.5217 109.013 11 110.889 11H145.946C147.822 11 149.343 12.5217 149.343 14.3988V23.5029Z" fill="#FF9999"/>
<path d="M96 76.3505C96.6145 76.6639 97.1831 77.0205 97.7375 77.3905C98.2884 77.7635 98.8265 78.1488 99.3447 78.5527C100.387 79.3551 101.37 80.2132 102.311 81.1096L100.222 81.2642C100.532 80.7713 100.835 80.3289 101.165 79.8822C101.489 79.4367 101.832 79.0063 102.185 78.5839C102.894 77.7427 103.654 76.9404 104.48 76.2004C105.31 75.4645 106.194 74.7798 107.156 74.1996C108.124 73.6313 109.155 73.1351 110.269 72.8994C109.556 73.7868 108.889 74.6055 108.235 75.4358L106.305 77.9143C105.665 78.7365 105.023 79.5573 104.376 80.3736L102.436 82.7992L101.352 84.1555L100.347 82.954C99.5121 81.9567 98.7187 80.921 97.9844 79.8297C97.6143 79.2867 97.2642 78.7251 96.9271 78.1512C96.5932 77.5743 96.2735 76.9839 96 76.3505Z" fill="#FFBE55"/>
<path d="M96 113.451C96.6145 113.764 97.1831 114.121 97.7375 114.491C98.2884 114.864 98.8265 115.249 99.3447 115.653C100.387 116.456 101.37 117.314 102.311 118.21L100.222 118.365C100.532 117.872 100.835 117.429 101.165 116.983C101.489 116.537 101.832 116.107 102.185 115.684C102.894 114.843 103.654 114.041 104.48 113.301C105.31 112.565 106.194 111.88 107.156 111.3C108.124 110.732 109.155 110.236 110.269 110C109.556 110.887 108.889 111.706 108.235 112.536L106.305 115.015C105.665 115.837 105.023 116.658 104.376 117.474L102.436 119.9L101.352 121.256L100.347 120.055C99.5121 119.057 98.7187 118.022 97.9844 116.93C97.6143 116.387 97.2642 115.826 96.9271 115.252C96.5932 114.675 96.2735 114.084 96 113.451Z" fill="#FFBE55"/>
<path d="M256.441 164.469H17.6181C13.8334 164.469 10.7666 161.402 10.7666 157.618C10.7666 153.833 13.8334 150.766 17.6181 150.766H256.441C260.225 150.766 263.292 153.833 263.292 157.618C263.292 161.402 260.225 164.469 256.441 164.469Z" fill="#999999"/>
<path d="M163.968 97.0833C164.699 96.5645 165.371 95.9642 165.681 95.788C165.812 95.7162 166.216 95.6249 166.331 95.589C166.67 95.4879 167.211 95.3834 167.446 95.1192L168.451 94.0164C168.928 93.4748 169.551 93.2954 170.089 93.7717C170.673 94.2872 170.5 95.0213 169.919 95.5433L169.231 96.3263C168.768 96.744 168.536 97.3312 168.278 97.8989C167.756 99.0571 166.572 99.9282 165.561 100.538C164.924 100.92 163.962 100.649 162.699 100.219C162.079 100.007 161.182 99.4943 161.955 99.204C162.605 98.9625 164.556 99.4878 165.417 97.6901C165.459 97.602 165.551 97.3671 165.463 97.2855C165.202 97.0409 164.624 97.5955 164.239 97.7717C163.698 98.0196 163.264 97.9348 163.13 97.7358C162.986 97.527 163.446 97.4552 163.968 97.0833Z" fill="#FAB9AF"/>
<path d="M191.426 57.6416C191.426 57.6416 189.815 76.9889 184.03 83.5173C180.546 87.452 172.021 94.1991 170.047 95.7456C169.795 95.9413 169.443 95.9511 169.182 95.7684C169.016 95.6509 168.826 95.5074 168.663 95.3638C168.497 95.217 168.304 95.005 168.131 94.8027C167.844 94.4666 167.857 93.9675 168.158 93.6445C170.37 91.2399 179.048 81.7099 180.105 79.2042C181.316 76.3298 183.4 59.361 185.316 56.9043C187.231 54.441 190.901 53.9092 191.426 57.6416Z" fill="#FF6666"/>
<path d="M184.122 89.6021L189.055 54.9533L202.356 53.1263L209.276 89.3542L184.122 89.6021Z" fill="#FAB9AF"/>
<path d="M194.405 143.295L194.392 147.2C194.389 147.996 194.497 148.786 194.712 149.549L195.051 150.753C195.329 151.742 194.588 152.72 193.56 152.717C190.901 152.707 186.353 152.714 185.182 152.717C184.989 152.717 184.803 152.587 184.787 152.397C184.689 151.259 187.981 150.492 190.464 149.533C192.353 148.802 192.252 145.406 192.02 143.422C191.932 142.672 192.559 142.035 193.309 142.097C193.929 142.15 194.408 142.672 194.405 143.295Z" fill="#FAB9AF"/>
<path d="M212.689 142.199L214.033 146.665C214.092 146.864 214.18 147.05 214.297 147.22L215.25 148.636C215.857 149.536 215.42 150.763 214.382 151.079C214.382 151.079 212.457 151.755 210.477 152.407C208.447 153.073 205.893 152.518 205.893 151.98C205.893 150.789 207.002 151.735 208.862 150.492C209.485 150.074 210.128 149.641 210.702 149.19C212.301 147.934 210.904 144.756 209.925 142.965C209.573 142.322 209.948 141.523 210.666 141.37L211.129 141.272C211.808 141.132 212.487 141.533 212.689 142.199Z" fill="#FAB9AF"/>
<path d="M198.943 89.9381L184.2 88.7016C184.2 88.7016 182.715 99.4323 186.441 118.855C188.19 127.964 191.831 145.37 191.831 145.37C192.735 145.765 193.651 145.862 194.585 145.631C194.585 145.631 194.862 137.954 195.032 129.683C195.195 121.755 195.237 113.282 195.743 110.509C196.774 104.845 198.943 89.9381 198.943 89.9381Z" fill="#343537"/>
<path d="M195.899 90.1241C194.376 98.2937 190.976 110.509 197.527 121.983C204.075 133.458 210.956 145.389 210.956 145.389C211.844 145.425 212.646 145.106 213.393 144.538C213.393 144.538 212.245 139.337 210.584 133.262C208.686 126.313 206.281 118.14 206.966 113.879C208.252 105.892 209.726 95.2562 209.279 90.0883C208.829 84.9203 196.699 85.8306 195.899 90.1241Z" fill="#343537"/>
<path d="M183.613 88.7212L189.055 54.9533L202.36 53.1263L209.508 88.7832C209.642 89.4521 209.208 90.1046 208.536 90.2318C206.059 90.7016 200.086 91.6804 193.397 91.6804C188.406 91.6804 185.6 90.7114 184.324 90.0948C183.809 89.8468 183.521 89.2889 183.613 88.7212Z" fill="#F2F2F2"/>
<path d="M209.945 101.791C210.147 100.92 210.258 100.023 210.372 99.6868C210.421 99.5465 210.666 99.2105 210.728 99.1061C210.917 98.8059 211.253 98.3687 211.253 98.0164L211.279 96.5254C211.279 95.8043 211.628 95.2595 212.346 95.2595C213.126 95.2595 213.482 95.925 213.39 96.7015V97.7456C213.319 98.3655 213.534 98.9593 213.717 99.5563C214.088 100.77 213.779 102.206 213.423 103.334C213.201 104.042 212.297 104.476 211.067 104.985C210.464 105.236 209.449 105.445 209.837 104.718C210.164 104.108 211.974 103.214 211.433 101.292C211.407 101.197 211.322 100.959 211.201 100.956C210.842 100.946 210.777 101.742 210.604 102.13C210.363 102.675 209.981 102.897 209.746 102.838C209.501 102.773 209.798 102.414 209.945 101.791Z" fill="#FAB9AF"/>
<path d="M198.203 55.2306C198.203 57.6645 198.647 60.0723 199.475 62.3594C201.1 66.8325 203.54 75.2891 202.089 82.7409C200.004 93.4716 197.319 97.8076 200.797 100.31C204.275 102.809 210.943 98.6396 211.136 97.2464C211.328 95.8566 209.837 78.7703 208.151 71.3675C206.461 63.9646 201.73 53.322 201.73 53.322L199.727 53.5374C198.859 53.6287 198.203 54.3595 198.203 55.2306Z" fill="#FF6666"/>
<path d="M204.454 54.0463C204.454 54.0463 216.043 69.6252 216.02 78.3461C216.007 83.6022 214.075 94.3002 213.619 96.7668C213.56 97.08 213.305 97.3214 212.986 97.354C212.783 97.3769 212.545 97.3932 212.33 97.3932C212.111 97.3932 211.824 97.3606 211.56 97.3247C211.123 97.2627 210.803 96.881 210.813 96.4373C210.881 93.1714 211.09 80.2841 210.222 77.7034C209.227 74.7442 199.57 60.6432 199.381 57.5307C199.188 54.4215 201.593 51.5928 204.454 54.0463Z" fill="#FF6666"/>
<path d="M192.663 54.4574C192.663 54.4574 190.356 59.4426 191.159 66.6073C191.965 73.772 193.828 95.589 187.309 98.8842C185.244 99.9283 180.529 95.3084 180.529 93.5923C180.529 91.8761 182.102 86.1405 183.593 80.9236C185.084 75.7067 188.676 55.0022 188.676 55.0022L192.663 54.4574Z" fill="#FF6666"/>
<path d="M194.519 39.0024C197.488 39.0024 198.598 41.1166 198.653 45.0252C198.676 46.4901 198.017 47.9387 197.485 48.8653C197.09 49.5537 196.983 50.3693 197.208 51.1295L197.86 53.335C198.304 55.3807 197.332 56.5063 195.896 56.9141C195.185 57.1164 194.334 56.9598 193.714 56.5585C192.976 56.0821 192.914 55.0544 193.051 54.1866L193.221 53.5569C193.449 52.7086 192.957 51.7951 192.099 51.6091C189.812 51.1099 189.485 48.725 188.872 45.0252C188.232 41.1688 191.551 39.0024 194.519 39.0024Z" fill="#FFD3BE"/>
<path d="M187.606 37.2863L189.309 37.8051C189.936 37.9943 190.601 38.0008 191.231 37.8181L194.631 36.8328C196.689 36.8328 200.092 37.9943 199.662 40.9665L199.283 43.0676C199.133 43.9061 198.432 44.5358 197.58 44.6076C197.502 44.898 197.237 45.1002 196.937 45.1002C196.569 45.1002 196.272 44.8033 196.272 44.4347C196.272 43.4852 195.606 42.6794 194.683 42.4706C193.547 42.2161 192.337 42.1541 191.068 42.4967C188.706 43.1329 186.213 41.668 185.978 39.2308C185.962 39.0775 185.955 38.9209 185.955 38.761C185.952 37.7757 186.764 37.0547 187.606 37.2863Z" fill="#1B1D24"/>
<path d="M197.019 45.0969C197.019 46.0039 197.355 46.738 198.229 46.738C199.103 46.738 199.661 45.4917 199.661 44.5847C199.661 43.6777 199.1 43.4558 198.229 43.4558C197.355 43.4558 197.019 44.1932 197.019 45.0969Z" fill="#FFD3BE"/>
<path d="M197.378 49.0773C197.378 49.0773 195.159 52.1246 192.402 51.7135C192.402 51.7135 192.976 51.9876 193.113 52.4313C193.113 52.4313 195.733 52.2388 197.378 49.0773Z" fill="#FFA283"/>
<path d="M217.162 4.24268C217.162 6.3601 215.766 8.0795 214.04 8.0795H177.019C175.296 8.0795 173.897 6.36337 173.897 4.24268C173.897 2.12525 175.293 0.405853 177.019 0.405853H214.04C215.766 0.409116 217.162 2.12525 217.162 4.24268Z" fill="#99AAFF"/>
<path d="M53.1608 75.3674C53.1608 77.4849 51.4447 79.2042 49.324 79.2042H3.83682C1.71939 79.2042 0 77.4881 0 75.3674C0 73.25 1.71613 71.5306 3.83682 71.5306H49.3273C51.4447 71.5306 53.1608 73.2467 53.1608 75.3674Z" fill="#99AAFF"/>
<path d="M71.7577 54.813C71.7577 56.9304 70.3352 58.6498 68.5832 58.6498H30.9426C29.1906 58.6498 27.7681 56.9337 27.7681 54.813C27.7681 52.6956 29.1906 50.9762 30.9426 50.9762H68.5832C70.3352 50.9762 71.7577 52.6923 71.7577 54.813Z" fill="#99AAFF"/>
<path d="M257.69 20.8559C257.69 22.9733 255.974 24.6927 253.853 24.6927H208.366C206.249 24.6927 204.529 22.9765 204.529 20.8559C204.529 18.7384 206.245 17.019 208.366 17.019H253.857C255.974 17.0223 257.69 18.7384 257.69 20.8559Z" fill="#99AAFF"/>
<path d="M194.8 149.856C194.8 149.856 192.738 150.766 190.817 149.35C190.817 149.35 186.073 150.11 184.712 151.513C183.352 152.916 184.337 153.611 186.047 153.582C187.753 153.552 194.35 153.484 194.35 153.484C194.35 153.484 196.043 152.45 194.8 149.856Z" fill="#13151D"/>
<path d="M214.624 147.552C214.624 147.552 213.619 148.874 211.368 148.091C211.368 148.091 206.363 150.378 205.479 152.12C204.595 153.862 205.74 154.234 207.365 153.702C208.989 153.171 215.267 151.154 215.267 151.154C215.267 151.154 216.578 149.66 214.624 147.552Z" fill="#13151D"/>
<path d="M93.6082 62.403L93.1308 61L92.6534 62.403C92.2511 63.5861 91.2947 64.5847 90 65.1741C91.2947 65.7641 92.2505 66.7627 92.6534 67.9452L93.1308 69.3487L93.6082 67.9452C94.0105 66.7621 94.9668 65.7641 96.2616 65.1741C94.9668 64.5847 94.011 63.5861 93.6082 62.403Z" fill="#FF9999"/>
<path d="M165.61 26.8488L165 25L164.39 26.8488C163.876 28.4073 162.654 29.7228 161 30.5C162.654 31.2772 163.876 32.5927 164.39 34.1512L165 36L165.61 34.1512C166.124 32.5927 167.346 31.2772 169 30.5C167.346 29.7224 166.124 28.4069 165.61 26.8488Z" fill="#FF9999"/>
<path d="M145.305 84.8404L145 84L144.695 84.8404C144.438 85.5488 143.827 86.1467 143 86.5C143.827 86.8533 144.438 87.4512 144.695 88.1596L145 89L145.305 88.1596C145.562 87.4512 146.173 86.8533 147 86.5C146.173 86.1465 145.562 85.5486 145.305 84.8404Z" fill="#FF9999"/>
<path d="M154.458 127.345L154 126L153.542 127.345C153.157 128.478 152.241 129.435 151 130C152.241 130.565 153.157 131.522 153.542 132.655L154 134L154.458 132.655C154.843 131.522 155.759 130.565 157 130C155.759 129.434 154.843 128.478 154.458 127.345Z" fill="#FF9999"/>
</svg>
